<svg width="1920" height="1080" viewBox="0 0 1920 1080" fill="none" xmlns="http://www.w3.org/2000/svg">
<g clip-path="url(#clip0)">
<rect width="1920" height="1080" fill="white"/>
<path d="M819 632.5C396.751 932.745 -97.5 1016 -452.5 266.5L-277.5 -171L2214.5 -146.5L2363 725.5C2188.5 751.333 2168.52 1010.01 1671 632.5C1358 395 1040.5 475 819 632.5Z" fill="#59CDFF" fill-opacity="0.66"/>
<path d="M745.5 559.5C323.251 859.745 -171 943 -526 193.5L-351 -244L2141 -219.5L2289.5 652.5C2115 678.333 2095.02 937.013 1597.5 559.5C1284.5 322 967 402 745.5 559.5Z" fill="#59CDFF" fill-opacity="0.66"/>
<path d="M627.827 461.545C163.762 691.946 -337.429 696.758 -570.651 -99.096L-329.284 -503.785L2128.12 -89.258L2138.2 795.239C1961.81 793.421 1901.56 1045.78 1469.31 594.997C1197.37 311.402 871.263 340.684 627.827 461.545Z" fill="#59CDFF" fill-opacity="0.66"/>
</g>
<defs>
<clipPath id="clip0">
<rect width="1920" height="1080" fill="white"/>
</clipPath>
</defs>
</svg>
