<svg width="1424" height="460" viewBox="0 0 1424 460" fill="none" xmlns="http://www.w3.org/2000/svg">
<path d="M535.27 2.12H1097.52C1106.85 2.12 1115.8 5.82645 1122.4 12.424C1128.99 19.0215 1132.7 27.9697 1132.7 37.3V418.13H500.09V37.3C500.09 27.9697 503.797 19.0215 510.394 12.424C516.992 5.82645 525.94 2.12 535.27 2.12Z" fill="#383838"/>
<path d="M1100.86 40.41H534.41C533.189 40.41 532.2 41.3995 532.2 42.6201V380.7C532.2 381.921 533.189 382.91 534.41 382.91H1100.86C1102.08 382.91 1103.07 381.921 1103.07 380.7V42.6201C1103.07 41.3995 1102.08 40.41 1100.86 40.41Z" fill="white"/>
<path d="M817.32 25.49C819.319 25.49 820.94 24.5274 820.94 23.34C820.94 22.1526 819.319 21.1899 817.32 21.1899C815.321 21.1899 813.7 22.1526 813.7 23.34C813.7 24.5274 815.321 25.49 817.32 25.49Z" fill="#4D4D4D"/>
<path d="M1102.26 57.15H531.39V80.31H1102.26V57.15Z" fill="#5ECDFC"/>
<path d="M1045.65 90.8201H581.08V210.93H1045.65V90.8201Z" fill="#5ECDFC"/>
<path d="M960.76 142.35H665.97V166.83H960.76V142.35Z" fill="#F7F7F7"/>
<path d="M960.71 142.35H897.92V167.12H960.71V142.35Z" fill="#0083CA"/>
<path d="M884.57 224.31H741.28V287.5H884.57V224.31Z" fill="#0083CA"/>
<path d="M1045.61 222.85H902.32V286.04H1045.61V222.85Z" fill="#0083CA"/>
<path d="M724.37 224.31H581.08V287.5H724.37V224.31Z" fill="#0083CA"/>
<path d="M885.01 297.7H741.72V301.91H885.01V297.7Z" fill="#999999"/>
<path d="M885.01 309.78H741.72V313.99H885.01V309.78Z" fill="#999999"/>
<path d="M885.01 321.86H741.72V326.07H885.01V321.86Z" fill="#999999"/>
<path d="M885.01 333.95H741.72V338.16H885.01V333.95Z" fill="#999999"/>
<path d="M1045.65 348.04H581.08V382.75H1045.65V348.04Z" fill="#5ECDFC"/>
<path d="M724.37 297.23H581.08V301.44H724.37V297.23Z" fill="#999999"/>
<path d="M724.37 309.31H581.08V313.52H724.37V309.31Z" fill="#999999"/>
<path d="M724.37 321.39H581.08V325.6H724.37V321.39Z" fill="#999999"/>
<path d="M724.37 333.47H581.08V337.68H724.37V333.47Z" fill="#999999"/>
<path d="M1045.61 297.7H902.32V301.91H1045.61V297.7Z" fill="#999999"/>
<path d="M1045.61 309.78H902.32V313.99H1045.61V309.78Z" fill="#999999"/>
<path d="M1045.61 321.86H902.32V326.07H1045.61V321.86Z" fill="#999999"/>
<path d="M1045.61 333.95H902.32V338.16H1045.61V333.95Z" fill="#999999"/>
<path d="M973.77 66.53H904.42V72.28H973.77V66.53Z" fill="#999999"/>
<path d="M886.67 66.53H817.32V72.28H886.67V66.53Z" fill="#AFAFAF"/>
<path d="M716.34 66.53H646.99V72.28H716.34V66.53Z" fill="#999999"/>
<path d="M799.65 66.53H730.3V72.28H799.65V66.53Z" fill="#999999"/>
<path d="M1201.32 438.57C1201.32 444.94 1176.19 454.18 1171.5 454.18H460.14C455.45 454.18 430.32 444.93 430.32 438.57H1201.32Z" fill="#919296"/>
<path d="M421.8 418H1206.67V423.24C1206.67 429.308 1204.26 435.128 1199.97 439.419C1195.68 443.709 1189.86 446.12 1183.79 446.12H444.12C441.189 446.12 438.287 445.543 435.579 444.421C432.871 443.299 430.41 441.655 428.337 439.583C426.265 437.51 424.621 435.049 423.499 432.341C422.377 429.634 421.8 426.731 421.8 423.8V418Z" fill="url(#paint0_linear)"/>
<path d="M1182.52 450.39C1182.52 453.14 1158.59 457.13 1154.13 457.13H476.8C472.34 457.13 448.41 453.13 448.41 450.39H1182.52Z" fill="#464142"/>
<path d="M864.92 419.9C864.867 422.877 863.668 425.72 861.573 427.836C859.477 429.952 856.647 431.178 853.67 431.26H765.97C759.63 431.26 755.73 425.58 755.73 419.91L864.92 419.9Z" fill="url(#paint1_linear)"/>
<path d="M701.97 455.08C704.1 453.43 710.09 453.47 711.62 455.14C708.464 456.042 705.115 456.022 701.97 455.08Z" fill="#1D1E21"/>
<path d="M914.72 455.52C916.85 453.87 922.84 453.91 924.37 455.58C921.214 456.482 917.865 456.462 914.72 455.52V455.52Z" fill="#1D1E21"/>
<path d="M476.52 454.76C478.65 453.11 484.64 453.15 486.17 454.82C483.014 455.722 479.665 455.702 476.52 454.76V454.76Z" fill="#1D1E21"/>
<path d="M1136.82 455.31C1138.95 453.66 1144.94 453.7 1146.47 455.37C1143.31 456.272 1139.96 456.252 1136.82 455.31Z" fill="#1D1E21"/>
<path d="M1129.52 433.89C1129.02 434.119 1128.49 434.277 1127.94 434.36H1104.94C1104.66 434.387 1104.37 434.356 1104.1 434.268C1103.83 434.181 1103.58 434.038 1103.37 433.85C1112.08 433.64 1120.81 433.58 1129.52 433.89V433.89Z" fill="#0D0F12"/>
<path d="M1102.92 435.58C1101.92 434.35 1101.03 433.14 1103.34 432.34C1109.16 432.86 1114.99 432.49 1120.81 432.55C1123.71 432.734 1126.63 432.681 1129.52 432.39C1131.82 433.52 1130.78 434.61 1129.52 435.69C1127.97 436.35 1126.34 435.98 1124.76 435.99C1118.4 436.04 1112.03 435.99 1105.66 435.99C1104.73 435.97 1103.73 436.39 1102.92 435.58Z" fill="#1C1E20"/>
<path d="M1102.92 435.58L1129.5 435.66C1129.49 435.818 1129.48 435.975 1129.45 436.13C1120.66 436.177 1111.88 436.207 1103.09 436.22C1103.02 436.22 1102.89 436.13 1102.89 436.08C1102.89 435.913 1102.9 435.746 1102.92 435.58V435.58Z" fill="#DCDDE0"/>
<path d="M1129.52 432.39C1129.02 432.619 1128.49 432.777 1127.94 432.86H1104.94C1104.66 432.887 1104.37 432.856 1104.1 432.768C1103.83 432.681 1103.58 432.538 1103.37 432.35C1112.08 432.12 1120.81 432.06 1129.52 432.39V432.39Z" fill="#0D0F12"/>
<path d="M1129.52 432.39C1129.02 432.619 1128.49 432.777 1127.94 432.86H1104.94C1104.66 432.887 1104.37 432.856 1104.1 432.768C1103.83 432.681 1103.58 432.538 1103.37 432.35C1112.08 432.12 1120.81 432.06 1129.52 432.39V432.39Z" fill="#0D0F12"/>
<path d="M1102.92 435.58C1101.92 434.35 1101.03 433.14 1103.34 432.34C1109.16 432.86 1114.99 432.49 1120.81 432.55C1123.71 432.734 1126.63 432.681 1129.52 432.39C1131.82 433.52 1130.78 434.61 1129.52 435.69C1127.97 436.35 1126.34 435.98 1124.76 435.99C1118.4 436.04 1112.03 435.99 1105.66 435.99C1104.73 435.97 1103.73 436.39 1102.92 435.58Z" fill="#1C1E20"/>
<path d="M1102.92 435.58L1129.5 435.66C1129.49 435.818 1129.48 435.975 1129.45 436.13C1120.66 436.177 1111.88 436.207 1103.09 436.22C1103.02 436.22 1102.89 436.13 1102.89 436.08C1102.89 435.913 1102.9 435.746 1102.92 435.58V435.58Z" fill="#CECECE"/>
<path d="M1129.52 432.39C1129.02 432.619 1128.49 432.777 1127.94 432.86H1104.94C1104.66 432.887 1104.37 432.856 1104.1 432.768C1103.83 432.681 1103.58 432.538 1103.37 432.35C1112.08 432.12 1120.81 432.06 1129.52 432.39V432.39Z" fill="#0D0F12"/>
<path d="M1402.9 195.19H1304.95C1293.61 195.19 1284.42 204.382 1284.42 215.72V436.42C1284.42 447.758 1293.61 456.95 1304.95 456.95H1402.9C1414.24 456.95 1423.43 447.758 1423.43 436.42V215.72C1423.43 204.382 1414.24 195.19 1402.9 195.19Z" fill="#383838"/>
<path d="M1354.92 447.83C1359.4 447.83 1363.03 443.863 1363.03 438.97C1363.03 434.077 1359.4 430.11 1354.92 430.11C1350.44 430.11 1346.81 434.077 1346.81 438.97C1346.81 443.863 1350.44 447.83 1354.92 447.83Z" fill="url(#paint2_linear)" stroke="#0C0C0C" stroke-miterlimit="10"/>
<path opacity="0.55" d="M1353.32 436.8H1356.07C1356.34 436.8 1356.59 436.905 1356.78 437.093C1356.96 437.28 1357.07 437.535 1357.07 437.8V440.11C1357.07 440.556 1356.89 440.983 1356.58 441.298C1356.26 441.613 1355.84 441.79 1355.39 441.79H1353.3C1353.03 441.79 1352.78 441.685 1352.59 441.497C1352.41 441.31 1352.3 441.055 1352.3 440.79V437.79C1352.3 437.658 1352.33 437.527 1352.38 437.406C1352.43 437.284 1352.51 437.174 1352.6 437.082C1352.7 436.99 1352.81 436.918 1352.93 436.869C1353.06 436.821 1353.19 436.797 1353.32 436.8V436.8Z" stroke="#424242" stroke-miterlimit="10"/>
<path d="M1339.32 215.82C1339.8 215.82 1340.18 215.238 1340.18 214.52C1340.18 213.802 1339.8 213.22 1339.32 213.22C1338.85 213.22 1338.46 213.802 1338.46 214.52C1338.46 215.238 1338.85 215.82 1339.32 215.82Z" fill="#4D4D4D"/>
<path d="M1363.39 213.62H1347.5C1346.85 213.62 1346.32 214.148 1346.32 214.8C1346.32 215.452 1346.85 215.98 1347.5 215.98H1363.39C1364.04 215.98 1364.57 215.452 1364.57 214.8C1364.57 214.148 1364.04 213.62 1363.39 213.62Z" fill="#191918"/>
<path d="M1362.46 213.91H1348.81C1348.32 213.91 1347.92 214.306 1347.92 214.795C1347.92 215.284 1348.32 215.68 1348.81 215.68H1362.46C1362.95 215.68 1363.35 215.284 1363.35 214.795C1363.35 214.306 1362.95 213.91 1362.46 213.91Z" fill="#423F43"/>
<path d="M1409.4 229.69H1299.83C1298.61 229.69 1297.62 230.679 1297.62 231.9V414.18C1297.62 415.4 1298.61 416.39 1299.83 416.39H1409.4C1410.62 416.39 1411.61 415.4 1411.61 414.18V231.9C1411.61 230.679 1410.62 229.69 1409.4 229.69Z" fill="white"/>
<path d="M1411.61 243.29H1297.62V254.97H1411.61V243.29Z" fill="#5ECDFC"/>
<path d="M1411.71 261.63H1297.72V317.51H1411.71V261.63Z" fill="#5ECDFC"/>
<path d="M1392.14 282.54H1309.62V294.6H1392.14V282.54Z" fill="#F7F7F7"/>
<path d="M1368.73 322.45H1340.12V344.77H1368.73V322.45Z" fill="#0083CA"/>
<path d="M1405.03 322.56H1376.42V344.88H1405.03V322.56Z" fill="#0083CA"/>
<path d="M1332.73 322.56H1304.12V344.88H1332.73V322.56Z" fill="#0083CA"/>
<path d="M1368.73 349.15H1340.12V351.2H1368.73V349.15Z" fill="#999999"/>
<path d="M1368.73 353.69H1340.12V355.74H1368.73V353.69Z" fill="#999999"/>
<path d="M1368.73 358.23H1340.12V360.28H1368.73V358.23Z" fill="#999999"/>
<path d="M1368.73 362.77H1340.12V364.82H1368.73V362.77Z" fill="#999999"/>
<path d="M1368.73 367.31H1340.12V369.36H1368.73V367.31Z" fill="#999999"/>
<path d="M1405.03 349.09H1376.42V351.14H1405.03V349.09Z" fill="#999999"/>
<path d="M1405.03 353.63H1376.42V355.68H1405.03V353.63Z" fill="#999999"/>
<path d="M1405.03 358.17H1376.42V360.22H1405.03V358.17Z" fill="#999999"/>
<path d="M1405.03 362.71H1376.42V364.76H1405.03V362.71Z" fill="#999999"/>
<path d="M1405.03 367.26H1376.42V369.31H1405.03V367.26Z" fill="#999999"/>
<path d="M1332.73 349.09H1304.12V351.14H1332.73V349.09Z" fill="#999999"/>
<path d="M1332.73 353.63H1304.12V355.68H1332.73V353.63Z" fill="#999999"/>
<path d="M1332.73 358.17H1304.12V360.22H1332.73V358.17Z" fill="#999999"/>
<path d="M1332.73 362.71H1304.12V364.76H1332.73V362.71Z" fill="#999999"/>
<path d="M1332.73 367.26H1304.12V369.31H1332.73V367.26Z" fill="#999999"/>
<path d="M1405.15 373.83H1304.22V402.12H1405.15V373.83Z" fill="#5ECDFC"/>
<path d="M1405.15 405.97H1304.22V408.01H1405.15V405.97Z" fill="#999999"/>
<path d="M1405.15 410.52H1304.22V412.61H1405.15V410.52Z" fill="#999999"/>
<path d="M1306.71 233.8H1301.32V234.55H1306.71V233.8Z" fill="#666666"/>
<path d="M1306.71 235.95H1301.32V236.7H1306.71V235.95Z" fill="#666666"/>
<path d="M1306.71 238.1H1301.32V238.85H1306.71V238.1Z" fill="#666666"/>
<path d="M1392.31 282.54H1376.42V294.83H1392.31V282.54Z" fill="#0083CA"/>
<path d="M318.45 0H35.18C15.7506 0 0 15.7506 0 35.18V424.05C0 443.479 15.7506 459.23 35.18 459.23H318.45C337.879 459.23 353.63 443.479 353.63 424.05V35.18C353.63 15.7506 337.879 0 318.45 0Z" fill="#383838"/>
<path d="M316.99 42.27H36.6301C35.4095 42.27 34.42 43.2595 34.42 44.48V418.15C34.42 419.371 35.4095 420.36 36.6301 420.36H316.99C318.211 420.36 319.2 419.371 319.2 418.15V44.48C319.2 43.2595 318.211 42.27 316.99 42.27Z" fill="white"/>
<path d="M176.81 25.84C178.119 25.84 179.18 24.7789 179.18 23.47C179.18 22.1611 178.119 21.1 176.81 21.1C175.501 21.1 174.44 22.1611 174.44 23.47C174.44 24.7789 175.501 25.84 176.81 25.84Z" fill="#4D4D4D"/>
<path d="M184.698 447.3C188.649 442.943 188.32 436.207 183.963 432.257C179.605 428.306 172.87 428.635 168.919 432.992C164.968 437.35 165.298 444.085 169.655 448.036C174.012 451.987 180.747 451.657 184.698 447.3Z" fill="url(#paint3_radial)" stroke="url(#paint4_radial)" stroke-miterlimit="10"/>
<path d="M319.2 71.51H34.42V95.26H319.2V71.51Z" fill="#5ECDFC"/>
<path d="M302.98 108.81H50.34V222.45H302.98V108.81Z" fill="#5ECDFC"/>
<path d="M266.54 157.44H82.34V176.8H266.54V157.44Z" fill="#F7F7F7"/>
<path d="M266.53 157.44H227.3V177.02H266.53V157.44Z" fill="#0083CA"/>
<path d="M212.12 232.49H140.64V277.87H212.12V232.49Z" fill="#0083CA"/>
<path d="M302.71 232.72H231.23V278.1H302.71V232.72Z" fill="#0083CA"/>
<path d="M122.04 232.72H50.5601V278.1H122.04V232.72Z" fill="#0083CA"/>
<path d="M212.12 286.78H140.64V290.95H212.12V286.78Z" fill="#999999"/>
<path d="M212.12 296.01H140.64V300.18H212.12V296.01Z" fill="#999999"/>
<path d="M212.12 305.25H140.64V309.42H212.12V305.25Z" fill="#999999"/>
<path d="M212.12 314.48H140.64V318.65H212.12V314.48Z" fill="#999999"/>
<path d="M212.12 323.72H140.64V327.89H212.12V323.72Z" fill="#999999"/>
<path d="M302.71 286.66H231.23V290.83H302.71V286.66Z" fill="#999999"/>
<path d="M302.71 295.9H231.23V300.07H302.71V295.9Z" fill="#999999"/>
<path d="M302.71 305.13H231.23V309.3H302.71V305.13Z" fill="#999999"/>
<path d="M302.71 314.37H231.23V318.54H302.71V314.37Z" fill="#999999"/>
<path d="M302.71 323.6H231.23V327.77H302.71V323.6Z" fill="#999999"/>
<path d="M122.04 286.66H50.5601V290.83H122.04V286.66Z" fill="#999999"/>
<path d="M122.04 295.9H50.5601V300.07H122.04V295.9Z" fill="#999999"/>
<path d="M122.04 305.13H50.5601V309.3H122.04V305.13Z" fill="#999999"/>
<path d="M122.04 314.37H50.5601V318.54H122.04V314.37Z" fill="#999999"/>
<path d="M122.04 323.6H50.5601V327.77H122.04V323.6Z" fill="#999999"/>
<path d="M302.98 336.97H50.83V394.5H302.98V336.97Z" fill="#5ECDFC"/>
<path d="M302.98 402.34H50.83V406.49H302.98V402.34Z" fill="#999999"/>
<path d="M302.98 411.58H50.83V415.83H302.98V411.58Z" fill="#999999"/>
<path d="M57.07 52.22H43.61V53.75H57.07V52.22Z" fill="#666666"/>
<path d="M57.07 56.5901H43.61V58.1201H57.07V56.5901Z" fill="#666666"/>
<path d="M57.07 60.97H43.61V62.5H57.07V60.97Z" fill="#666666"/>
<defs>
<linearGradient id="paint0_linear" x1="421.8" y1="432.06" x2="1206.72" y2="432.06" gradientUnits="userSpaceOnUse">
<stop stop-color="#606162"/>
<stop offset="0.12" stop-color="#B7BABB"/>
<stop offset="0.36" stop-color="#A2A5A6"/>
<stop offset="0.51" stop-color="#C9CCCD"/>
<stop offset="0.73" stop-color="#848687"/>
<stop offset="0.88" stop-color="#9C9FA0"/>
<stop offset="1" stop-color="#4C4D4E"/>
</linearGradient>
<linearGradient id="paint1_linear" x1="810.32" y1="419.9" x2="810.32" y2="431.26" gradientUnits="userSpaceOnUse">
<stop stop-color="#9C9FA0"/>
<stop offset="0.24" stop-color="#A2A5A6"/>
<stop offset="1" stop-color="#4C4D4E"/>
</linearGradient>
<linearGradient id="paint2_linear" x1="1350.62" y1="446.49" x2="1359.32" y2="431.45" gradientUnits="userSpaceOnUse">
<stop stop-color="#0A0A0A"/>
<stop offset="0.57" stop-color="#1B1B1B"/>
<stop offset="1" stop-color="#090909"/>
</linearGradient>
<radialGradient id="paint3_radial" cx="0" cy="0" r="1" gradientUnits="userSpaceOnUse" gradientTransform="translate(176.804 440.142) scale(10.65 6.39)">
<stop stop-color="#2A2A2A"/>
<stop offset="1" stop-color="#090909"/>
</radialGradient>
<radialGradient id="paint4_radial" cx="0" cy="0" r="1" gradientUnits="userSpaceOnUse" gradientTransform="translate(176.799 440.147) scale(11.15)">
<stop offset="0.13" stop-color="#464646"/>
<stop offset="0.37" stop-color="#2B2B2B"/>
<stop offset="1" stop-color="#090909"/>
</radialGradient>
</defs>
</svg>
